# xmcd
#
# Track frame offsets:
#	180
#	17765
#	39200
#	55806
#	72699
#	90217
#	108892
#	131484
#
# Disc length: 2030 seconds
#
# Revision: 3
# Processed by: cddbd v1.5.2PL0 Copyright (c) Steve Scherf et al.
# Submitted via: EasyCDDAExtractor 15.3.0.1
#
DISCID=5d07ec08
DTITLE=Milly Y Los Vecinos - En Tus Manos
DYEAR=1995
DGENRE=Latin
TTITLE0=Y Ya Pa' Que
TTITLE1=Se Fue
TTITLE2=Tu Y Las Olas
TTITLE3=Gaviota
TTITLE4=En Tus Manos
TTITLE5=Fiebre Juvenil
TTITLE6=Entre Tu Cuerpo Y El Mio
TTITLE7=Mal Amor
EXTD=
EXTT0=
EXTT1=
EXTT2=
EXTT3=
EXTT4=
EXTT5=
EXTT6=
EXTT7=
PLAYORDER=
